<svg xmlns="http://www.w3.org/2000/svg" width="1713" height="1005"><defs><style>@import url('https://fonts.googleapis.com/css2?family=Roboto+Mono&amp;display=swap')</style><style>text,text&gt;tspan{font-family:'Roboto Mono';font-size:16px} rect{stroke:black} line,path{fill:none;stroke:black}</style><marker id="arrowMarker" orient="auto" refX="6" refY="5" markerHeight="10" markerWidth="5"><path style="fill:black;stroke:black" d="M 0 0 L 5 5 L 0 10 Z"></path></marker><marker id="inheritMarker" orient="auto" refX="16" refY="7.5" markerHeight="15" markerWidth="15"><path style="fill:white;stroke:black" d="M 0 0 L 15 7.5 L 0 15 Z"></path></marker><marker id="aggregationMarker" orient="auto" refX="21" refY="7.5" markerHeight="15" markerWidth="20"><path style="fill:white;stroke:black" d="M 0 7.5 L 10 0 L 20 7.5 L 10 15 Z"></path></marker><marker id="compositionMarker" orient="auto" refX="21" refY="7.5" markerHeight="15" markerWidth="20"><path style="fill:black;stroke:black" d="M 0 7.5 L 10 0 L 20 7.5 L 10 15 Z"></path></marker></defs><g transform="translate(24,5)"><rect height="122" width="257" style="fill:white"></rect><rect height="21" width="257" style="fill:lightgrey"></rect><text x="76.25" y="16">Commentaire</text><text><tspan x="2.5" y="37" style="text-decoration:underline">id</tspan><tspan x="147.5" y="37">VARCHAR(50)</tspan><tspan x="2.5" y="53">titre</tspan><tspan x="147.5" y="53">VARCHAR(50)</tspan><tspan x="2.5" y="69">contenu</tspan><tspan x="147.5" y="69">VARCHAR(50)</tspan><tspan x="2.5" y="85">creerLe</tspan><tspan x="147.5" y="85">VARCHAR(50)</tspan><tspan x="2.5" y="101">idUtilisateur</tspan><tspan x="147.5" y="101">VARCHAR(50)</tspan><tspan x="2.5" y="117">idBoutique</tspan><tspan x="147.5" y="117">VARCHAR(50)</tspan></text></g><g transform="translate(369,5)"><rect height="122" width="219" style="fill:white"></rect><rect height="21" width="219" style="fill:lightgrey"></rect><text x="71.5" y="16">Boutique</text><text><tspan x="2.5" y="37" style="text-decoration:underline">id</tspan><tspan x="109.5" y="37">VARCHAR(50)</tspan><tspan x="2.5" y="53">nom</tspan><tspan x="109.5" y="53">VARCHAR(50)</tspan><tspan x="2.5" y="69">rue</tspan><tspan x="109.5" y="69">VARCHAR(50)</tspan><tspan x="2.5" y="85">numero</tspan><tspan x="109.5" y="85">VARCHAR(50)</tspan><tspan x="2.5" y="101">codePays</tspan><tspan x="109.5" y="101">VARCHAR(50)</tspan><tspan x="2.5" y="117">telephone</tspan><tspan x="109.5" y="117">VARCHAR(50)</tspan></text></g><g transform="translate(657,177)"><rect height="106" width="228" style="fill:white"></rect><rect height="21" width="228.5" style="fill:lightgrey"></rect><text x="90.5" y="16">Photo</text><text><tspan x="2.5" y="37" style="text-decoration:underline">id</tspan><tspan x="119" y="37">VARCHAR(50)</tspan><tspan x="2.5" y="53">nom</tspan><tspan x="119" y="53">VARCHAR(50)</tspan><tspan x="2.5" y="69">url</tspan><tspan x="119" y="69">VARCHAR(50)</tspan><tspan x="2.5" y="85">idProduit</tspan><tspan x="119" y="85">VARCHAR(50)</tspan><tspan x="2.5" y="101">idBoutique</tspan><tspan x="119" y="101">VARCHAR(50)</tspan></text></g><g transform="translate(43,333)"><rect height="138" width="219" style="fill:white"></rect><rect height="21" width="219" style="fill:lightgrey"></rect><text x="57.25" y="16">Utilisateur</text><text><tspan x="2.5" y="37" style="text-decoration:underline">id</tspan><tspan x="109.5" y="37">VARCHAR(50)</tspan><tspan x="2.5" y="53">prenom</tspan><tspan x="109.5" y="53">VARCHAR(50)</tspan><tspan x="2.5" y="69">nom</tspan><tspan x="109.5" y="69">VARCHAR(50)</tspan><tspan x="2.5" y="85">password</tspan><tspan x="109.5" y="85">VARCHAR(50)</tspan><tspan x="2.5" y="101">email</tspan><tspan x="109.5" y="101">VARCHAR(50)</tspan><tspan x="2.5" y="117">genre</tspan><tspan x="109.5" y="117">VARCHAR(50)</tspan><tspan x="2.5" y="133">telephone</tspan><tspan x="109.5" y="133">VARCHAR(50)</tspan></text></g><g transform="translate(350,357)"><rect height="90" width="257" style="fill:white"></rect><rect height="21" width="257" style="fill:lightgrey"></rect><text x="90.5" y="16">Commande</text><text><tspan x="2.5" y="37" style="text-decoration:underline">id</tspan><tspan x="147.5" y="37">VARCHAR(50)</tspan><tspan x="2.5" y="53">creeLe</tspan><tspan x="147.5" y="53">VARCHAR(50)</tspan><tspan x="2.5" y="69">status</tspan><tspan x="147.5" y="69">VARCHAR(50)</tspan><tspan x="2.5" y="85">idUtilisateur</tspan><tspan x="147.5" y="85">VARCHAR(50)</tspan></text></g><g transform="translate(1147,537)"><rect height="90" width="228" style="fill:white"></rect><rect height="21" width="228.5" style="fill:lightgrey"></rect><text x="52.5" y="16">LigneCommande</text><text><tspan x="2.5" y="37" style="text-decoration:underline">id</tspan><tspan x="119" y="37">VARCHAR(50)</tspan><tspan x="2.5" y="53">quantite</tspan><tspan x="119" y="53">VARCHAR(50)</tspan><tspan x="2.5" y="69">idProduit</tspan><tspan x="119" y="69">VARCHAR(50)</tspan><tspan x="2.5" y="85">idCommande</tspan><tspan x="119" y="85">VARCHAR(50)</tspan></text></g><g transform="translate(1425,521)"><rect height="122" width="238" style="fill:white"></rect><rect height="21" width="238" style="fill:lightgrey"></rect><text x="85.75" y="16">Produit</text><text><tspan x="2.5" y="37" style="text-decoration:underline">id</tspan><tspan x="128.5" y="37">VARCHAR(50)</tspan><tspan x="2.5" y="53">designation</tspan><tspan x="128.5" y="53">VARCHAR(50)</tspan><tspan x="2.5" y="69">description</tspan><tspan x="128.5" y="69">VARCHAR(50)</tspan><tspan x="2.5" y="85">prix</tspan><tspan x="128.5" y="85">VARCHAR(50)</tspan><tspan x="2.5" y="101">idCategorie</tspan><tspan x="128.5" y="101">VARCHAR(50)</tspan><tspan x="2.5" y="117">idBoutique</tspan><tspan x="128.5" y="117">VARCHAR(50)</tspan></text></g><g transform="translate(935,693)"><rect height="58" width="162" style="fill:white"></rect><rect height="21" width="162" style="fill:lightgrey"></rect><text x="38.25" y="16">Categorie</text><text><tspan x="2.5" y="37" style="text-decoration:underline">id</tspan><tspan x="52.5" y="37">VARCHAR(50)</tspan><tspan x="2.5" y="53">nom</tspan><tspan x="52.5" y="53">VARCHAR(50)</tspan></text></g><g transform="translate(5,801)"><rect height="154" width="295" style="fill:white"></rect><rect height="21" width="295" style="fill:lightgrey"></rect><text x="114.25" y="16">Adresse</text><text><tspan x="2.5" y="37" style="text-decoration:underline">id</tspan><tspan x="185.5" y="37">VARCHAR(50)</tspan><tspan x="2.5" y="53">rue</tspan><tspan x="185.5" y="53">VARCHAR(50)</tspan><tspan x="2.5" y="69">numero</tspan><tspan x="185.5" y="69">VARCHAR(50)</tspan><tspan x="2.5" y="85">numeroAppartement</tspan><tspan x="185.5" y="85">VARCHAR(50)</tspan><tspan x="2.5" y="101">message</tspan><tspan x="185.5" y="101">VARCHAR(50)</tspan><tspan x="2.5" y="117">code</tspan><tspan x="185.5" y="117">VARCHAR(50)</tspan><tspan x="2.5" y="133">ville</tspan><tspan x="185.5" y="133">VARCHAR(50)</tspan><tspan x="2.5" y="149">idUtilisateur</tspan><tspan x="185.5" y="149">VARCHAR(50)</tspan></text></g><g transform="translate(364,833)"><rect height="90" width="228" style="fill:white"></rect><rect height="21" width="228.5" style="fill:lightgrey"></rect><text x="71.5" y="16">Livraison</text><text><tspan x="2.5" y="37" style="text-decoration:underline">date</tspan><tspan x="119" y="37">VARCHAR(50)</tspan><tspan x="2.5" y="53"></tspan><tspan x="119" y="53">VARCHAR(50)</tspan><tspan x="2.5" y="69">idAdresse</tspan><tspan x="119" y="69">VARCHAR(50)</tspan><tspan x="2.5" y="85">idCommande</tspan><tspan x="119" y="85">VARCHAR(50)</tspan></text></g><g><path d="M 281 101 L 291 101 L 291 365 L 262 365" marker-end="url(#arrowMarker)"></path></g><g><path d="M 281 117 L 291 117 L 359 37 L 369 37" marker-end="url(#arrowMarker)"></path></g><g><path d="M 885 257 L 895 257 L 1415 553 L 1425 553" marker-end="url(#arrowMarker)"></path></g><g><path d="M 657 273 L 647 273 L 598 37 L 588 37" marker-end="url(#arrowMarker)"></path></g><g><path d="M 350 437 L 340 437 L 272 365 L 262 365" marker-end="url(#arrowMarker)"></path></g><g><path d="M 1375 601 L 1385 601 L 1415 553 L 1425 553" marker-end="url(#arrowMarker)"></path></g><g><path d="M 1147 617 L 1137 617 L 617 389 L 607 389" marker-end="url(#arrowMarker)"></path></g><g><path d="M 1425 617 L 1415 617 L 1107 725 L 1097 725" marker-end="url(#arrowMarker)"></path></g><g><path d="M 1425 633 L 1415 633 L 598 37 L 588 37" marker-end="url(#arrowMarker)"></path></g><g><path d="M 300 945 L 310 945 L 310 365 L 262 365" marker-end="url(#arrowMarker)"></path></g><g><path d="M 364 897 L 354 897 L 310 833 L 300 833" marker-end="url(#arrowMarker)"></path></g><g><path d="M 592 913 L 617 913 L 617 389 L 607 389" marker-end="url(#arrowMarker)"></path></g></svg>