<svg xmlns="http://www.w3.org/2000/svg" width="2080" height="1825"><defs><style>@import url('https://fonts.googleapis.com/css2?family=Roboto+Mono&amp;display=swap')</style><style>text,text&gt;tspan{font-family:'Roboto Mono';font-size:16px} rect{stroke:black} line,path{fill:none;stroke:black}</style><marker id="arrowMarker" orient="auto" refX="6" refY="5" markerHeight="10" markerWidth="5"><path style="fill:black;stroke:black" d="M 0 0 L 5 5 L 0 10 Z"></path></marker><marker id="inheritMarker" orient="auto" refX="16" refY="7.5" markerHeight="15" markerWidth="15"><path style="fill:white;stroke:black" d="M 0 0 L 15 7.5 L 0 15 Z"></path></marker><marker id="aggregationMarker" orient="auto" refX="21" refY="7.5" markerHeight="15" markerWidth="20"><path style="fill:white;stroke:black" d="M 0 7.5 L 10 0 L 20 7.5 L 10 15 Z"></path></marker><marker id="compositionMarker" orient="auto" refX="21" refY="7.5" markerHeight="15" markerWidth="20"><path style="fill:black;stroke:black" d="M 0 7.5 L 10 0 L 20 7.5 L 10 15 Z"></path></marker></defs><g transform="translate(33,21)"><rect height="90" width="133.5" style="fill:white"></rect><rect height="21" width="133.5" style="fill:lightgrey"></rect><text x="14.5" y="16">Commentaire</text><text><tspan x="2.5" y="37"># id &lt;&lt;id&gt;&gt;</tspan><tspan x="2.5" y="53"># titre</tspan><tspan x="2.5" y="69"># contenu</tspan><tspan x="2.5" y="85"># creerLe</tspan></text><line x1="0" x2="133.5" y1="91" y2="91"></line></g><g transform="translate(404,5)"><rect height="122" width="143" style="fill:white"></rect><rect height="21" width="143" style="fill:lightgrey"></rect><text x="33.5" y="16">Boutique</text><text><tspan x="2.5" y="37"># id &lt;&lt;id&gt;&gt;</tspan><tspan x="2.5" y="53"># nom</tspan><tspan x="2.5" y="69"># rue</tspan><tspan x="2.5" y="85"># numero</tspan><tspan x="2.5" y="101"># codePays</tspan><tspan x="2.5" y="117"># telephone</tspan></text><line x1="0" x2="143" y1="123" y2="123"></line></g><g transform="translate(757,327)"><rect height="74" width="114.5" style="fill:white"></rect><rect height="21" width="114.5" style="fill:lightgrey"></rect><text x="33.5" y="16">Photo</text><text><tspan x="2.5" y="37"># id &lt;&lt;id&gt;&gt;</tspan><tspan x="2.5" y="53"># nom</tspan><tspan x="2.5" y="69"># url</tspan></text><line x1="0" x2="114.5" y1="75" y2="75"></line></g><g transform="translate(28,601)"><rect height="138" width="143" style="fill:white"></rect><rect height="21" width="143" style="fill:lightgrey"></rect><text x="19.25" y="16">Utilisateur</text><text><tspan x="2.5" y="37"># id &lt;&lt;id&gt;&gt;</tspan><tspan x="2.5" y="53"># prenom</tspan><tspan x="2.5" y="69"># nom</tspan><tspan x="2.5" y="85"># password</tspan><tspan x="2.5" y="101"># email</tspan><tspan x="2.5" y="117"># genre</tspan><tspan x="2.5" y="133"># telephone</tspan></text><line x1="0" x2="143" y1="139" y2="139"></line></g><g transform="translate(395,633)"><rect height="74" width="162" style="fill:white"></rect><rect height="21" width="162" style="fill:lightgrey"></rect><text x="43" y="16">Commande</text><text><tspan x="2.5" y="37"># id &lt;&lt;id&gt;&gt;</tspan><tspan x="2.5" y="53"># creeLe</tspan><tspan x="2.5" y="69"># status</tspan></text><line x1="0" x2="162" y1="75" y2="75"></line></g><g transform="translate(1385,955)"><rect height="58" width="133.5" style="fill:white"></rect><rect height="21" width="133.5" style="fill:lightgrey"></rect><text x="5" y="16">LigneCommande</text><text><tspan x="2.5" y="37"># id &lt;&lt;id&gt;&gt;</tspan><tspan x="2.5" y="53"># quantite</tspan></text><line x1="0" x2="133.5" y1="59" y2="59"></line></g><g transform="translate(1718,939)"><rect height="90" width="162" style="fill:white"></rect><rect height="21" width="162" style="fill:lightgrey"></rect><text x="47.75" y="16">Produit</text><text><tspan x="2.5" y="37"># id &lt;&lt;id&gt;&gt;</tspan><tspan x="2.5" y="53"># designation</tspan><tspan x="2.5" y="69"># description</tspan><tspan x="2.5" y="85"># prix</tspan></text><line x1="0" x2="162" y1="91" y2="91"></line></g><g transform="translate(1071,1229)"><rect height="58" width="114.5" style="fill:white"></rect><rect height="21" width="114.5" style="fill:lightgrey"></rect><text x="14.5" y="16">Categorie</text><text><tspan x="2.5" y="37"># id &lt;&lt;id&gt;&gt;</tspan><tspan x="2.5" y="53"># nom</tspan></text><line x1="0" x2="114.5" y1="59" y2="59"></line></g><g transform="translate(5,1487)"><rect height="138" width="190.5" style="fill:white"></rect><rect height="21" width="190.5" style="fill:lightgrey"></rect><text x="62" y="16">Adresse</text><text><tspan x="2.5" y="37"># id &lt;&lt;id&gt;&gt;</tspan><tspan x="2.5" y="53"># rue</tspan><tspan x="2.5" y="69"># numero</tspan><tspan x="2.5" y="85"># numeroAppartement</tspan><tspan x="2.5" y="101"># message</tspan><tspan x="2.5" y="117"># code</tspan><tspan x="2.5" y="133"># ville</tspan></text><line x1="0" x2="190.5" y1="139" y2="139"></line></g><g transform="translate(409,1527)"><rect height="58" width="133.5" style="fill:white"></rect><rect height="21" width="133.5" style="fill:lightgrey"></rect><text x="24" y="16">Livraison</text><text><tspan x="2.5" y="37"># date &lt;&lt;id&gt;&gt;</tspan><tspan x="2.5" y="53"># </tspan></text><line x1="0" x2="133.5" y1="59" y2="59"></line></g><g><line x1="166" x2="404" y1="66" y2="66"></line><text x="320.5" y="103">boutique</text><text x="171" y="103">commentaires</text><text x="171" y="87">1..*</text><text x="387" y="87">1</text></g><g><line x1="544" x2="772" y1="127" y2="327"></line><text x="708" y="304">photos</text><text x="549" y="164">boutique</text><text x="549" y="148">1</text><text x="727" y="320">1..*</text></g><g><line x1="99" x2="99" y1="111" y2="601"></line><text x="104" y="578">utilisateur</text><text x="104" y="148">commentaires</text><text x="104" y="132">1..*</text><text x="104" y="594">1</text></g><g><line x1="547" x2="1734" y1="116" y2="939"></line><text x="1651" y="916">produits</text><text x="552" y="153">boutique</text><text x="552" y="137">1</text><text x="1689" y="932">1..*</text></g><g><line x1="1728" x2="871" y1="939" y2="400"></line><text x="876" y="437">photos</text><text x="1654" y="916">produit</text><text x="1711" y="932">1</text><text x="876" y="421">1..*</text></g><g><line x1="171" x2="395" y1="670" y2="670"></line><text x="302.5" y="707">commandes</text><text x="176" y="707">utilisateur</text><text x="176" y="691">1</text><text x="350" y="691">1..*</text></g><g><line x1="99" x2="100" y1="739" y2="1487"></line><text x="105" y="1464">adresses</text><text x="104" y="776">utilisateur</text><text x="104" y="760">1</text><text x="105" y="1480">1..*</text></g><g><line x1="476" x2="475" y1="707" y2="1527"></line><text x="480" y="1504">livraison</text><text x="481" y="744">commande</text><text x="481" y="728">1</text><text x="480" y="1520">1</text></g><g><line x1="557" x2="1385" y1="696" y2="963"></line><text x="1245" y="940">ligneCommandes</text><text x="562" y="733">commande</text><text x="562" y="717">1</text><text x="1340" y="956">1..*</text></g><g><line x1="1518" x2="1718" y1="984" y2="984"></line><text x="1644" y="1021">produit</text><text x="1523" y="1021">ligneCommandes</text><text x="1523" y="1005">1..*</text><text x="1701" y="1005">1</text></g><g><line x1="1185" x2="1718" y1="1235" y2="1017"></line><text x="1635" y="1054">produits</text><text x="1190" y="1212">categorie</text><text x="1190" y="1228">1</text><text x="1673" y="1038">1..*</text></g><g><line x1="195" x2="409" y1="1556" y2="1556"></line><text x="307" y="1593">livraisons</text><text x="200" y="1593">adresse</text><text x="200" y="1577">1</text><text x="364" y="1577">1..*</text></g></svg>