<svg xmlns="http://www.w3.org/2000/svg" width="1454" height="925"><defs><style>@import url('https://fonts.googleapis.com/css2?family=Roboto+Mono&amp;display=swap')</style><style>text,text&gt;tspan{font-family:'Roboto Mono';font-size:16px} rect{stroke:black} line,path{fill:none;stroke:black}</style><marker id="arrowMarker" orient="auto" refX="6" refY="5" markerHeight="10" markerWidth="5"><path style="fill:black;stroke:black" d="M 0 0 L 5 5 L 0 10 Z"></path></marker><marker id="inheritMarker" orient="auto" refX="16" refY="7.5" markerHeight="15" markerWidth="15"><path style="fill:white;stroke:black" d="M 0 0 L 15 7.5 L 0 15 Z"></path></marker><marker id="aggregationMarker" orient="auto" refX="21" refY="7.5" markerHeight="15" markerWidth="20"><path style="fill:white;stroke:black" d="M 0 7.5 L 10 0 L 20 7.5 L 10 15 Z"></path></marker><marker id="compositionMarker" orient="auto" refX="21" refY="7.5" markerHeight="15" markerWidth="20"><path style="fill:black;stroke:black" d="M 0 7.5 L 10 0 L 20 7.5 L 10 15 Z"></path></marker></defs><g transform="translate(33,21)"><rect height="90" width="114" style="fill:white"></rect><rect height="21" width="114.5" style="fill:lightgrey"></rect><text x="5" y="16">Commentaire</text><text><tspan x="2.5" y="37" style="text-decoration:underline">id</tspan><tspan x="2.5" y="53">titre</tspan><tspan x="2.5" y="69">contenu</tspan><tspan x="2.5" y="85">creerLe</tspan></text></g><g transform="translate(486,5)"><rect height="122" width="95" style="fill:white"></rect><rect height="21" width="95.5" style="fill:lightgrey"></rect><text x="9.75" y="16">Boutique</text><text><tspan x="2.5" y="37" style="text-decoration:underline">id</tspan><tspan x="2.5" y="53">nom</tspan><tspan x="2.5" y="69">rue</tspan><tspan x="2.5" y="85">numero</tspan><tspan x="2.5" y="101">codePays</tspan><tspan x="2.5" y="117">telephone</tspan></text></g><g transform="translate(665,177)"><rect height="74" width="57" style="fill:white"></rect><rect height="21" width="57.5" style="fill:lightgrey"></rect><text x="5" y="16">Photo</text><text><tspan x="2.5" y="37" style="text-decoration:underline">id</tspan><tspan x="2.5" y="53">nom</tspan><tspan x="2.5" y="69">url</tspan></text></g><g transform="translate(33,301)"><rect height="138" width="114" style="fill:white"></rect><rect height="21" width="114.5" style="fill:lightgrey"></rect><text x="5" y="16">Utilisateur</text><text><tspan x="2.5" y="37" style="text-decoration:underline">id</tspan><tspan x="2.5" y="53">prenom</tspan><tspan x="2.5" y="69">nom</tspan><tspan x="2.5" y="85">password</tspan><tspan x="2.5" y="101">email</tspan><tspan x="2.5" y="117">genre</tspan><tspan x="2.5" y="133">telephone</tspan></text></g><g transform="translate(490,333)"><rect height="74" width="86" style="fill:white"></rect><rect height="21" width="86" style="fill:lightgrey"></rect><text x="5" y="16">Commande</text><text><tspan x="2.5" y="37" style="text-decoration:underline">id</tspan><tspan x="2.5" y="53">creeLe</tspan><tspan x="2.5" y="69">status</tspan></text></g><g transform="translate(961,505)"><rect height="58" width="133" style="fill:white"></rect><rect height="21" width="133.5" style="fill:lightgrey"></rect><text x="5" y="16">LigneCommande</text><text><tspan x="2.5" y="37" style="text-decoration:underline">id</tspan><tspan x="2.5" y="53">quantite</tspan></text></g><g transform="translate(1290,489)"><rect height="90" width="114" style="fill:white"></rect><rect height="21" width="114.5" style="fill:lightgrey"></rect><text x="24" y="16">Produit</text><text><tspan x="2.5" y="37" style="text-decoration:underline">id</tspan><tspan x="2.5" y="53">designation</tspan><tspan x="2.5" y="69">description</tspan><tspan x="2.5" y="85">prix</tspan></text></g><g transform="translate(806,629)"><rect height="58" width="95" style="fill:white"></rect><rect height="21" width="95.5" style="fill:lightgrey"></rect><text x="5" y="16">Categorie</text><text><tspan x="2.5" y="37" style="text-decoration:underline">id</tspan><tspan x="2.5" y="53">nom</tspan></text></g><g transform="translate(5,737)"><rect height="138" width="171" style="fill:white"></rect><rect height="21" width="171.5" style="fill:lightgrey"></rect><text x="52.5" y="16">Adresse</text><text><tspan x="2.5" y="37" style="text-decoration:underline">id</tspan><tspan x="2.5" y="53">rue</tspan><tspan x="2.5" y="69">numero</tspan><tspan x="2.5" y="85">numeroAppartement</tspan><tspan x="2.5" y="101">message</tspan><tspan x="2.5" y="117">code</tspan><tspan x="2.5" y="133">ville</tspan></text></g><g transform="translate(486,777)"><rect height="58" width="95" style="fill:white"></rect><rect height="21" width="95.5" style="fill:lightgrey"></rect><text x="5" y="16">Livraison</text><text><tspan x="2.5" y="37" style="text-decoration:underline">date</tspan><tspan x="2.5" y="53"></tspan></text></g><g transform="translate(226,45)"><rect height="42" width="200.5" rx="20" ry="20" style="fill:lightgrey"></rect><line x1="0" x2="200.5" y1="21" y2="21"></line><text x="10" y="17">commenter boutiquer</text><text></text></g><g transform="translate(645,45)"><rect height="42" width="96" rx="20" ry="20" style="fill:lightgrey"></rect><line x1="0" x2="96" y1="21" y2="21"></line><text x="10" y="17">contenir</text><text></text></g><g transform="translate(273,193)"><rect height="42" width="105.5" rx="20" ry="20" style="fill:lightgrey"></rect><line x1="0" x2="105.5" y1="21" y2="21"></line><text x="10" y="17">est ecrit</text><text></text></g><g transform="translate(500,193)"><rect height="42" width="67.5" rx="20" ry="20" style="fill:lightgrey"></rect><line x1="0" x2="67.5" y1="21" y2="21"></line><text x="10" y="17">avoir</text><text></text></g><g transform="translate(796,193)"><rect height="42" width="115" rx="20" ry="20" style="fill:lightgrey"></rect><line x1="0" x2="115" y1="21" y2="21"></line><text x="10" y="17">contenir_2</text><text></text></g><g transform="translate(287,349)"><rect height="42" width="77" rx="20" ry="20" style="fill:lightgrey"></rect><line x1="0" x2="77" y1="21" y2="21"></line><text x="10" y="17">passer</text><text></text></g><g transform="translate(42,513)"><rect height="42" width="96" rx="20" ry="20" style="fill:lightgrey"></rect><line x1="0" x2="96" y1="21" y2="21"></line><text x="10" y="17">posseder</text><text></text></g><g transform="translate(283,513)"><rect height="42" width="86.5" rx="20" ry="20" style="fill:lightgrey"></rect><line x1="0" x2="86.5" y1="21" y2="21"></line><text x="10" y="17">referer</text><text></text></g><g transform="translate(641,513)"><rect height="42" width="105.5" rx="20" ry="20" style="fill:lightgrey"></rect><line x1="0" x2="105.5" y1="21" y2="21"></line><text x="10" y="17">contienir</text><text></text></g><g transform="translate(1144,513)"><rect height="42" width="96" rx="20" ry="20" style="fill:lightgrey"></rect><line x1="0" x2="96" y1="21" y2="21"></line><text x="10" y="17">composer</text><text></text></g><g transform="translate(476,637)"><rect height="42" width="115" rx="20" ry="20" style="fill:lightgrey"></rect><line x1="0" x2="115" y1="21" y2="21"></line><text x="10" y="17">appartenir</text><text></text></g><g transform="translate(283,785)"><rect height="42" width="86.5" rx="20" ry="20" style="fill:lightgrey"></rect><line x1="0" x2="86.5" y1="21" y2="21"></line><text x="10" y="17">avoir_2</text><text></text></g><g><line x1="226" x2="147" y1="66" y2="66"></line><text x="152" y="87">1,1</text></g><g><line x1="426" x2="486" y1="66" y2="66"></line><text x="450" y="87">1,N</text></g><g><line x1="645" x2="581" y1="66" y2="66"></line><text x="586" y="87">1,N</text></g><g><line x1="693" x2="693" y1="87" y2="177"></line><text x="698" y="170">1,1</text></g><g><line x1="292" x2="147" y1="193" y2="102"></line><text x="152" y="123">1,1</text></g><g><line x1="293" x2="147" y1="235" y2="332"></line><text x="152" y="325">1,N</text></g><g><line x1="533" x2="533" y1="193" y2="127"></line><text x="538" y="148">1,N</text></g><g><line x1="567" x2="1290" y1="227" y2="512"></line><text x="1254" y="505">1,1</text></g><g><line x1="885" x2="1290" y1="235" y2="497"></line><text x="1254" y="490">1,N</text></g><g><line x1="796" x2="722" y1="214" y2="214"></line><text x="727" y="235">1,1</text></g><g><line x1="287" x2="147" y1="370" y2="370"></line><text x="152" y="391">1,N</text></g><g><line x1="364" x2="490" y1="370" y2="370"></line><text x="454" y="391">1,1</text></g><g><line x1="90" x2="90" y1="513" y2="439"></line><text x="95" y="460">1,N</text></g><g><line x1="90" x2="90" y1="555" y2="737"></line><text x="95" y="730">1,1</text></g><g><line x1="353" x2="490" y1="513" y2="404"></line><text x="454" y="425">1,1</text></g><g><line x1="342" x2="511" y1="555" y2="777"></line><text x="475" y="770">1,1</text></g><g><line x1="673" x2="569" y1="513" y2="407"></line><text x="574" y="428">1,N</text></g><g><line x1="746" x2="961" y1="534" y2="534"></line><text x="925" y="555">1,1</text></g><g><line x1="1144" x2="1094" y1="534" y2="534"></line><text x="1099" y="555">1,1</text></g><g><line x1="1240" x2="1290" y1="534" y2="534"></line><text x="1254" y="555">1,N</text></g><g><line x1="591" x2="806" y1="658" y2="658"></line><text x="770" y="679">1,N</text></g><g><line x1="591" x2="1290" y1="649" y2="543"></line><text x="1254" y="564">1,1</text></g><g><line x1="283" x2="176" y1="806" y2="806"></line><text x="181" y="827">1,N</text></g><g><line x1="369" x2="486" y1="806" y2="806"></line><text x="450" y="827">1,1</text></g></svg>