<svg xmlns="http://www.w3.org/2000/svg" width="1056" height="1005"><defs><style>@import url('https://fonts.googleapis.com/css2?family=Roboto+Mono&amp;display=swap')</style><style>text,text&gt;tspan{font-family:'Roboto Mono';font-size:16px} rect{stroke:black} line,path{fill:none;stroke:black}</style><marker id="arrowMarker" orient="auto" refX="6" refY="5" markerHeight="10" markerWidth="5"><path style="fill:black;stroke:black" d="M 0 0 L 5 5 L 0 10 Z"></path></marker><marker id="inheritMarker" orient="auto" refX="16" refY="7.5" markerHeight="15" markerWidth="15"><path style="fill:white;stroke:black" d="M 0 0 L 15 7.5 L 0 15 Z"></path></marker><marker id="aggregationMarker" orient="auto" refX="21" refY="7.5" markerHeight="15" markerWidth="20"><path style="fill:white;stroke:black" d="M 0 7.5 L 10 0 L 20 7.5 L 10 15 Z"></path></marker><marker id="compositionMarker" orient="auto" refX="21" refY="7.5" markerHeight="15" markerWidth="20"><path style="fill:black;stroke:black" d="M 0 7.5 L 10 0 L 20 7.5 L 10 15 Z"></path></marker></defs><g transform="translate(24,5)"><rect height="122" width="133" style="fill:white"></rect><rect height="21" width="133.5" style="fill:lightgrey"></rect><text x="14.5" y="16">Commentaire</text><text><tspan x="2.5" y="37" style="text-decoration:underline">id</tspan><tspan x="2.5" y="53">titre</tspan><tspan x="2.5" y="69">contenu</tspan><tspan x="2.5" y="85">creerLe</tspan><tspan x="2.5" y="101">idUtilisateur</tspan><tspan x="2.5" y="117">idBoutique</tspan></text></g><g transform="translate(245,5)"><rect height="122" width="95" style="fill:white"></rect><rect height="21" width="95.5" style="fill:lightgrey"></rect><text x="9.75" y="16">Boutique</text><text><tspan x="2.5" y="37" style="text-decoration:underline">id</tspan><tspan x="2.5" y="53">nom</tspan><tspan x="2.5" y="69">rue</tspan><tspan x="2.5" y="85">numero</tspan><tspan x="2.5" y="101">codePays</tspan><tspan x="2.5" y="117">telephone</tspan></text></g><g transform="translate(409,177)"><rect height="106" width="105" style="fill:white"></rect><rect height="21" width="105" style="fill:lightgrey"></rect><text x="28.75" y="16">Photo</text><text><tspan x="2.5" y="37" style="text-decoration:underline">id</tspan><tspan x="2.5" y="53">nom</tspan><tspan x="2.5" y="69">url</tspan><tspan x="2.5" y="85">idProduit</tspan><tspan x="2.5" y="101">idBoutique</tspan></text></g><g transform="translate(33,333)"><rect height="138" width="114" style="fill:white"></rect><rect height="21" width="114.5" style="fill:lightgrey"></rect><text x="5" y="16">Utilisateur</text><text><tspan x="2.5" y="37" style="text-decoration:underline">id</tspan><tspan x="2.5" y="53">prenom</tspan><tspan x="2.5" y="69">nom</tspan><tspan x="2.5" y="85">password</tspan><tspan x="2.5" y="101">email</tspan><tspan x="2.5" y="117">genre</tspan><tspan x="2.5" y="133">telephone</tspan></text></g><g transform="translate(226,357)"><rect height="90" width="133" style="fill:white"></rect><rect height="21" width="133.5" style="fill:lightgrey"></rect><text x="28.75" y="16">Commande</text><text><tspan x="2.5" y="37" style="text-decoration:underline">id</tspan><tspan x="2.5" y="53">creeLe</tspan><tspan x="2.5" y="69">status</tspan><tspan x="2.5" y="85">idUtilisateur</tspan></text></g><g transform="translate(709,537)"><rect height="90" width="133" style="fill:white"></rect><rect height="21" width="133.5" style="fill:lightgrey"></rect><text x="5" y="16">LigneCommande</text><text><tspan x="2.5" y="37" style="text-decoration:underline">id</tspan><tspan x="2.5" y="53">quantite</tspan><tspan x="2.5" y="69">idProduit</tspan><tspan x="2.5" y="85">idCommande</tspan></text></g><g transform="translate(892,521)"><rect height="122" width="114" style="fill:white"></rect><rect height="21" width="114.5" style="fill:lightgrey"></rect><text x="24" y="16">Produit</text><text><tspan x="2.5" y="37" style="text-decoration:underline">id</tspan><tspan x="2.5" y="53">designation</tspan><tspan x="2.5" y="69">description</tspan><tspan x="2.5" y="85">prix</tspan><tspan x="2.5" y="101">idCategorie</tspan><tspan x="2.5" y="117">idBoutique</tspan></text></g><g transform="translate(564,693)"><rect height="58" width="95" style="fill:white"></rect><rect height="21" width="95.5" style="fill:lightgrey"></rect><text x="5" y="16">Categorie</text><text><tspan x="2.5" y="37" style="text-decoration:underline">id</tspan><tspan x="2.5" y="53">nom</tspan></text></g><g transform="translate(5,801)"><rect height="154" width="171" style="fill:white"></rect><rect height="21" width="171.5" style="fill:lightgrey"></rect><text x="52.5" y="16">Adresse</text><text><tspan x="2.5" y="37" style="text-decoration:underline">id</tspan><tspan x="2.5" y="53">rue</tspan><tspan x="2.5" y="69">numero</tspan><tspan x="2.5" y="85">numeroAppartement</tspan><tspan x="2.5" y="101">message</tspan><tspan x="2.5" y="117">code</tspan><tspan x="2.5" y="133">ville</tspan><tspan x="2.5" y="149">idUtilisateur</tspan></text></g><g transform="translate(240,833)"><rect height="90" width="105" style="fill:white"></rect><rect height="21" width="105" style="fill:lightgrey"></rect><text x="9.75" y="16">Livraison</text><text><tspan x="2.5" y="37" style="text-decoration:underline">date</tspan><tspan x="2.5" y="53"></tspan><tspan x="2.5" y="69">idAdresse</tspan><tspan x="2.5" y="85">idCommande</tspan></text></g><g><path d="M 157 101 L 167 101 L 167 365 L 147 365" marker-end="url(#arrowMarker)"></path></g><g><path d="M 157 117 L 167 117 L 235 37 L 245 37" marker-end="url(#arrowMarker)"></path></g><g><path d="M 514 257 L 524 257 L 882 553 L 892 553" marker-end="url(#arrowMarker)"></path></g><g><path d="M 409 273 L 399 273 L 350 37 L 340 37" marker-end="url(#arrowMarker)"></path></g><g><path d="M 226 437 L 216 437 L 157 365 L 147 365" marker-end="url(#arrowMarker)"></path></g><g><path d="M 842 601 L 852 601 L 882 553 L 892 553" marker-end="url(#arrowMarker)"></path></g><g><path d="M 709 617 L 699 617 L 369 389 L 359 389" marker-end="url(#arrowMarker)"></path></g><g><path d="M 892 617 L 882 617 L 669 725 L 659 725" marker-end="url(#arrowMarker)"></path></g><g><path d="M 892 633 L 882 633 L 350 37 L 340 37" marker-end="url(#arrowMarker)"></path></g><g><path d="M 176 945 L 186 945 L 186 365 L 147 365" marker-end="url(#arrowMarker)"></path></g><g><path d="M 240 897 L 230 897 L 186 833 L 176 833" marker-end="url(#arrowMarker)"></path></g><g><path d="M 345 913 L 369 913 L 369 389 L 359 389" marker-end="url(#arrowMarker)"></path></g></svg>